<mxfile host="drawio-plugin" modified="2022-09-14T19:04:49.691Z" agent="5.0 (Windows NT 6.2; Win64; x64) AppleWebKit/537.36 (KHTML, like Gecko) Chrome/97.0.4692.45 Safari/537.36" etag="H-7sKALnA_X_g-3JRI5z" version="15.5.4" type="embed"><diagram id="oWBv67kzmXLNEye6vd-x" name="Страница 1"><mxGraphModel dx="763" dy="434" grid="1" gridSize="10" guides="1" tooltips="1" connect="1" arrows="1" fold="1" page="1" pageScale="1" pageWidth="827" pageHeight="1169" math="0" shadow="0"><root><mxCell id="0"/><mxCell id="1" parent="0"/><mxCell id="5" value="" style="edgeStyle=orthogonalEdgeStyle;rounded=0;orthogonalLoop=1;jettySize=auto;html=1;" parent="1" source="2" target="4" edge="1"><mxGeometry relative="1" as="geometry"/></mxCell><mxCell id="7" value="" style="edgeStyle=orthogonalEdgeStyle;rounded=0;orthogonalLoop=1;jettySize=auto;html=1;" parent="1" source="2" target="6" edge="1"><mxGeometry relative="1" as="geometry"/></mxCell><mxCell id="2" value="Приложение&lt;br&gt;(App)" style="rounded=1;whiteSpace=wrap;html=1;" parent="1" vertex="1"><mxGeometry x="354" y="100" width="120" height="60" as="geometry"/></mxCell><mxCell id="51" value="" style="edgeStyle=orthogonalEdgeStyle;rounded=0;orthogonalLoop=1;jettySize=auto;html=1;align=center;" parent="1" source="4" target="50" edge="1"><mxGeometry relative="1" as="geometry"/></mxCell><mxCell id="4" value="Логическая часть&lt;br&gt;(base)" style="whiteSpace=wrap;html=1;rounded=1;" parent="1" vertex="1"><mxGeometry x="234" y="200" width="120" height="60" as="geometry"/></mxCell><mxCell id="9" value="" style="edgeStyle=orthogonalEdgeStyle;rounded=0;orthogonalLoop=1;jettySize=auto;html=1;" parent="1" source="6" target="8" edge="1"><mxGeometry relative="1" as="geometry"/></mxCell><mxCell id="6" value="Окружение" style="whiteSpace=wrap;html=1;rounded=1;" parent="1" vertex="1"><mxGeometry x="474" y="200" width="120" height="60" as="geometry"/></mxCell><mxCell id="35" value="" style="edgeStyle=orthogonalEdgeStyle;rounded=0;orthogonalLoop=1;jettySize=auto;html=1;align=center;" parent="1" source="8" target="34" edge="1"><mxGeometry relative="1" as="geometry"/></mxCell><mxCell id="57" style="edgeStyle=orthogonalEdgeStyle;rounded=0;orthogonalLoop=1;jettySize=auto;html=1;entryX=0.5;entryY=0;entryDx=0;entryDy=0;align=center;" parent="1" source="8" target="54" edge="1"><mxGeometry relative="1" as="geometry"><Array as="points"><mxPoint x="680" y="50"/><mxPoint x="140" y="50"/></Array></mxGeometry></mxCell><mxCell id="8" value="Агент&lt;br&gt;" style="whiteSpace=wrap;html=1;rounded=1;" parent="1" vertex="1"><mxGeometry x="620" y="200" width="120" height="60" as="geometry"/></mxCell><mxCell id="37" value="" style="edgeStyle=orthogonalEdgeStyle;rounded=0;orthogonalLoop=1;jettySize=auto;html=1;align=center;" parent="1" source="34" target="36" edge="1"><mxGeometry relative="1" as="geometry"/></mxCell><mxCell id="39" value="" style="edgeStyle=orthogonalEdgeStyle;rounded=0;orthogonalLoop=1;jettySize=auto;html=1;align=center;" parent="1" source="34" target="38" edge="1"><mxGeometry relative="1" as="geometry"><Array as="points"><mxPoint x="680" y="320"/><mxPoint x="760" y="320"/></Array></mxGeometry></mxCell><mxCell id="34" value="Особь" style="whiteSpace=wrap;html=1;rounded=1;" parent="1" vertex="1"><mxGeometry x="620" y="280" width="120" height="20" as="geometry"/></mxCell><mxCell id="61" value="" style="edgeStyle=orthogonalEdgeStyle;rounded=0;orthogonalLoop=1;jettySize=auto;html=1;align=center;" parent="1" source="36" target="60" edge="1"><mxGeometry relative="1" as="geometry"/></mxCell><mxCell id="36" value="Логика особи" style="whiteSpace=wrap;html=1;rounded=1;" parent="1" vertex="1"><mxGeometry x="510" y="340" width="120" height="30" as="geometry"/></mxCell><mxCell id="38" value="Физика особи" style="whiteSpace=wrap;html=1;rounded=1;" parent="1" vertex="1"><mxGeometry x="700" y="430" width="120" height="30" as="geometry"/></mxCell><mxCell id="40" value="" style="endArrow=classic;html=1;rounded=0;align=center;exitX=0.5;exitY=1;exitDx=0;exitDy=0;" parent="1" source="38" edge="1"><mxGeometry relative="1" as="geometry"><mxPoint x="570" y="360" as="sourcePoint"/><mxPoint x="760" y="500" as="targetPoint"/></mxGeometry></mxCell><mxCell id="41" value="Pymunk" style="edgeLabel;resizable=0;html=1;align=center;verticalAlign=middle;" parent="40" connectable="0" vertex="1"><mxGeometry relative="1" as="geometry"/></mxCell><mxCell id="45" value="" style="edgeStyle=orthogonalEdgeStyle;rounded=0;orthogonalLoop=1;jettySize=auto;html=1;align=center;" parent="1" source="42" target="44" edge="1"><mxGeometry relative="1" as="geometry"/></mxCell><mxCell id="47" value="" style="edgeStyle=orthogonalEdgeStyle;rounded=0;orthogonalLoop=1;jettySize=auto;html=1;align=center;" parent="1" source="42" target="46" edge="1"><mxGeometry relative="1" as="geometry"/></mxCell><mxCell id="49" value="" style="edgeStyle=orthogonalEdgeStyle;rounded=0;orthogonalLoop=1;jettySize=auto;html=1;align=center;" parent="1" source="42" edge="1"><mxGeometry relative="1" as="geometry"><mxPoint x="620" y="540.0000000000001" as="targetPoint"/></mxGeometry></mxCell><mxCell id="42" value="Sprite" style="rounded=0;whiteSpace=wrap;html=1;align=center;" parent="1" vertex="1"><mxGeometry x="700" y="500" width="120" height="20" as="geometry"/></mxCell><mxCell id="44" value="Rect" style="rounded=0;whiteSpace=wrap;html=1;align=center;" parent="1" vertex="1"><mxGeometry x="560" y="500" width="120" height="20" as="geometry"/></mxCell><mxCell id="46" value="Joint" style="rounded=0;whiteSpace=wrap;html=1;align=center;" parent="1" vertex="1"><mxGeometry x="700" y="540" width="120" height="20" as="geometry"/></mxCell><mxCell id="59" style="edgeStyle=orthogonalEdgeStyle;rounded=0;orthogonalLoop=1;jettySize=auto;html=1;align=center;" parent="1" source="48" target="44" edge="1"><mxGeometry relative="1" as="geometry"/></mxCell><mxCell id="48" value="Rigidbody" style="rounded=0;whiteSpace=wrap;html=1;align=center;" parent="1" vertex="1"><mxGeometry x="420" y="500" width="120" height="20" as="geometry"/></mxCell><mxCell id="53" style="edgeStyle=orthogonalEdgeStyle;rounded=0;orthogonalLoop=1;jettySize=auto;html=1;entryX=0;entryY=0.5;entryDx=0;entryDy=0;align=center;" parent="1" source="50" target="36" edge="1"><mxGeometry relative="1" as="geometry"/></mxCell><mxCell id="50" value="Нейросеть" style="whiteSpace=wrap;html=1;rounded=1;" parent="1" vertex="1"><mxGeometry x="234" y="280" width="120" height="40" as="geometry"/></mxCell><mxCell id="56" value="" style="edgeStyle=orthogonalEdgeStyle;rounded=0;orthogonalLoop=1;jettySize=auto;html=1;align=center;" parent="1" source="54" target="50" edge="1"><mxGeometry relative="1" as="geometry"/></mxCell><mxCell id="54" value="Генетический алгоритм" style="whiteSpace=wrap;html=1;rounded=1;" parent="1" vertex="1"><mxGeometry x="80" y="280" width="120" height="40" as="geometry"/></mxCell><mxCell id="58" value="Rigidbody" style="rounded=0;whiteSpace=wrap;html=1;align=center;" parent="1" vertex="1"><mxGeometry x="560" y="540" width="120" height="20" as="geometry"/></mxCell><mxCell id="62" value="" style="edgeStyle=orthogonalEdgeStyle;rounded=0;orthogonalLoop=1;jettySize=auto;html=1;align=center;" parent="1" source="60" target="38" edge="1"><mxGeometry relative="1" as="geometry"/></mxCell><mxCell id="60" value="Организация движения особи" style="rounded=0;whiteSpace=wrap;html=1;align=center;" parent="1" vertex="1"><mxGeometry x="510" y="430" width="120" height="30" as="geometry"/></mxCell></root></mxGraphModel></diagram></mxfile>